<mxfile host="app.diagrams.net" modified="2024-03-07T05:20:35.231Z" agent="Mozilla/5.0 (Macintosh; Intel Mac OS X 10_15_7) AppleWebKit/537.36 (KHTML, like Gecko) Chrome/122.0.0.0 Safari/537.36" version="24.0.2" etag="Z_mYhRmLxLG9catT8T_x" type="github">
  <diagram name="Halaman-1" id="VMCJo97QDPJOsRob18dW">
    <mxGraphModel>
      <root>
        <mxCell id="0" />
        <mxCell id="1" parent="0" />
      </root>
    </mxGraphModel>
  </diagram>
</mxfile>
